{"title":"Future &amp; Miley Cyrus - Real and True ft. Mr Hudson 720p x264","uid":9182477,"size":47592851,"categoryP":"video","categoryS":"music_videos","magnet":"?xt=urn:btih:174d6a8e34beb574b0f9ff20878595fecf0929b9&amp;dn=Future+%26amp%3B+Miley+Cyrus+-+Real+and+True+ft.+Mr+Hudson+720p+x264&amp;tr=udp%3A%2F%2Ftracker.openbittorrent.com%3A80&amp;tr=udp%3A%2F%2Fopen.demonii.com%3A1337&amp;tr=udp%3A%2F%2Ftracker.coppersurfer.tk%3A6969&amp;tr=udp%3A%2F%2Fexodus.desync.com%3A6969","seeders":1,"leechers":0,"uploader":"canc232","files":1,"time":1384247647,"description":"Future &amp; Miley Cyrus - Real and True ft. Mr Hudson 720p x264 AAC E-Subs [GWC]\n\nCOVER : &lt;a href=&quot;\nhttp://s20.postimg.org/4dsqktc71/fut.jpg&quot; rel=&quot;nofollow&quot; target=&quot;_NEW&quot;&gt;\nhttp://s20.postimg.org/4dsqktc71/fut.jpg&lt;/a&gt;\n\n\n\nThe space-themed video features Future and Hudson setting off on the surface of some planetary terrain before discovering the lifeless body of Cyrus in a green space suit. They take her back to their base, where she's resusciated, but not before getting stripped down and placed in a laboratory-like\nchamber, wearing nothing but body paint.\n\nMeanwhile, things go awry inside the spaceship, leading the astronauts to make a last-ditch decision to save themselves before they're lost in space.\n\n\nTHUMBNAIL IMAGE : &lt;a href=&quot;\nhttp://img109.imageshack.us/img109/8590/1ten.jpg&quot; rel=&quot;nofollow&quot; target=&quot;_NEW&quot;&gt;\nhttp://img109.imageshack.us/img109/8590/1ten.jpg&lt;/a&gt;\n\n\nMEDIA INFO :\n\nGeneral \nFormat : MPEG-4 \nFormat profile : Base Media \nFile size : 45.4 MiB \nDuration : 4mn 33s \nOverall bit rate mode : Variable \nOverall bit rate : 1 391 Kbps \n\nVideo \nFormat : AVC \nFormat profile : &lt;a class=&quot;__cf_email__&quot; href=&quot;/cdn-cgi/l/email-protection&quot; data-cfemail=&quot;236b4a444b636f100d12&quot;&gt;[email&amp;#160;protected]&lt;/a&gt;&lt;script cf-hash='f9e31' type=&quot;text/javascript&quot;&gt;\n/* &lt;![CDATA[ */!function(){try{var t=&quot;currentScript&quot;in document?document.currentScript:function(){for(var t=document.getElementsByTagName(&quot;script&quot;),e=t.length;e--;)if(t[e].getAttribute(&quot;cf-hash&quot;))return t[e]}();if(t&amp;&amp;t.previousSibling){var e,r,n,i,c=t.previousSibling,a=c.getAttribute(&quot;data-cfemail&quot;);if(a){for(e=&quot;&quot;,r=parseInt(a.substr(0,2),16),n=2;a.length-n;n+=2)i=parseInt(a.substr(n,2),16)^r,e+=String.fromCharCode(i);e=document.createTextNode(e),c.parentNode.replaceChild(e,c)}}}catch(u){}}();/* ]]&gt; */&lt;/script&gt;\nDuration : 4mn 33s \nBit rate : 1 303 Kbps  \nWidth : 1 280 pixels \nHeight : 720 pixels \nDisplay aspect ratio : 16:9 \nFrame rate : 23.976 fps \nStream size : 42.5 MiB (94%) \nTitle : Future &amp; Miley Cyrus - Real and True ft. Mr Hudson 720p x264 AAC E-Subs [GWC]\n\nAudio \nFormat : AAC \nFormat profile : LC \nDuration : 4mn 33s \nBit rate mode : Variable \nChannel(s) : 2 channels \nSampling rate : 48.0 KHz \nStream size : 2.82 MiB (6%) \nLanguage : English \n\nText \nFormat : Timed Text \nCodec ID : tx3g \nDuration : 4mn 30s \nTitle : English Subtitle by [GWC] \nLanguage : English","torrent":{"xt":"urn:btih:174d6a8e34beb574b0f9ff20878595fecf0929b9","amp;dn":"Future+%26amp%3B+Miley+Cyrus+-+Real+and+True+ft.+Mr+Hudson+720p+x264","amp;tr":["udp%3A%2F%2Ftracker.openbittorrent.com%3A80","udp%3A%2F%2Fopen.demonii.com%3A1337","udp%3A%2F%2Ftracker.coppersurfer.tk%3A6969","udp%3A%2F%2Fexodus.desync.com%3A6969"],"infoHash":"174d6a8e34beb574b0f9ff20878595fecf0929b9","infoHashBuffer":{"type":"Buffer","data":[23,77,106,142,52,190,181,116,176,249,255,32,135,133,149,254,207,9,41,185]},"announce":[],"urlList":[]}}